<?xml version="1.0" encoding="UTF-8"?>
<svg version="1.1" xmlns="http://www.w3.org/2000/svg" width="1995" height="625">
<path d="M0 0 C0.75539063 -0.01224609 1.51078125 -0.02449219 2.2890625 -0.03710938 C3.39507813 -0.04000977 3.39507813 -0.04000977 4.5234375 -0.04296875 C5.19036621 -0.04707764 5.85729492 -0.05118652 6.54443359 -0.05541992 C9.13399558 0.24692861 11.24806791 1.14335693 13.625 2.1875 C12.35713555 10.99820273 10.37585026 19.44418108 7.9375 28 C7.74925659 28.6668985 7.56101318 29.333797 7.36706543 30.02090454 C3.67475573 43.07000911 -0.46092103 55.97030161 -4.625 68.875 C-25.22174244 132.7786277 -42.64781821 197.95074544 -47.375 265.1875 C-47.43284668 265.95642578 -47.49069336 266.72535156 -47.55029297 267.51757812 C-49.2533286 290.46055077 -48.47159778 313.29710875 -46.375 336.1875 C-46.28911621 337.15880859 -46.20323242 338.13011719 -46.11474609 339.13085938 C-43.07266216 371.87766121 -34.34964182 403.61721464 -25.67077637 435.22036743 C-20.21522321 455.08923827 -15.04289378 474.89772119 -11.375 495.1875 C-11.20371582 496.10499023 -11.03243164 497.02248047 -10.85595703 497.96777344 C-9.86204782 503.3574674 -9.03397315 508.74689661 -8.375 514.1875 C-8.27348633 515.01137207 -8.17197266 515.83524414 -8.06738281 516.68408203 C-5.00014463 542.76528241 -3.57097449 572.58529081 -10.375 598.1875 C-24.29112389 596.05029424 -35.74386532 580.96854159 -45.17326355 571.53640747 C-46.22440225 570.48857733 -47.27575017 569.44095702 -48.32728654 568.39352596 C-51.18940423 565.54132188 -54.04846271 562.6860691 -56.90696228 559.83023953 C-60.0006495 556.74048677 -63.09715303 553.65355838 -66.19322205 550.56619263 C-73.6511819 543.12789807 -81.10438326 535.68484443 -88.55697271 528.24116975 C-92.0728255 524.72971185 -95.5891621 521.21873851 -99.10543251 517.70769882 C-110.80102363 506.02910184 -122.49536557 494.34925612 -134.18609142 482.66578865 C-137.21251172 479.64127796 -140.2389374 476.61677267 -143.26538086 473.59228516 C-144.01750582 472.84064393 -144.76963079 472.08900271 -145.54454742 471.31458448 C-157.74113158 459.12630899 -169.94621654 446.94658321 -182.15485915 434.77038755 C-194.70697492 422.2513588 -207.25153283 409.72479706 -219.78871328 397.19081104 C-226.82108794 390.16059876 -233.8567008 383.13369625 -240.90077782 376.11520767 C-246.89563895 370.14207504 -252.88360024 364.1621316 -258.8627493 358.17326941 C-261.91073551 355.12074628 -264.96182028 352.07150534 -268.02178955 349.0309906 C-270.82769059 346.24277494 -273.624043 343.44532752 -276.41335932 340.64052354 C-277.41911284 339.63240227 -278.42819711 338.6275895 -279.44108 337.62663151 C-289.81563705 327.36660707 -298.32981426 316.82317395 -298.8125 301.875 C-298.34391248 283.67217726 -286.59596243 271.94340256 -274.33753967 259.76235962 C-273.24732238 258.66795848 -272.15775586 257.57290873 -271.06877607 256.47727621 C-268.10507381 253.49923948 -265.13223107 250.53048334 -262.15765059 247.56331754 C-258.93951963 244.34994569 -255.73006335 241.1279283 -252.51942444 237.90707397 C-246.24116255 231.61167468 -239.95480773 225.32441839 -233.66534693 219.04020937 C-228.55255865 213.93147196 -223.44253496 208.81998469 -218.33444023 203.70655441 C-217.6058515 202.97721726 -216.87726277 202.24788011 -216.1265956 201.49644183 C-214.64625533 200.01457001 -213.16591846 198.5326948 -211.68558495 197.05081622 C-197.8255263 183.1770519 -183.9559261 169.31285737 -170.08327233 155.45168881 C-157.4002689 142.77862503 -144.72875377 130.09414583 -132.06268067 117.40416296 C-119.04094032 104.35802758 -106.01182114 91.31930498 -92.97455209 78.28868711 C-85.66154933 70.97917445 -78.35142807 63.66683639 -71.04893684 56.34682083 C-64.83550678 50.1186642 -58.61507341 43.89760655 -52.38557012 37.68552501 C-49.2096679 34.51812952 -46.03702434 31.34764626 -42.87303925 28.16834259 C-39.97321036 25.2546484 -37.06420463 22.35044807 -34.14780264 19.45334522 C-33.09798858 18.40728561 -32.05148911 17.35788589 -31.00879658 16.30472751 C-21.67104105 6.87998703 -13.63095047 0.01151263 0 0 Z " fill="#1F303E" transform="translate(1689.375,8.8125)"/>
<path d="M0 0 C1.36898437 0.01353516 1.36898437 0.01353516 2.765625 0.02734375 C3.74789062 0.04474609 3.74789062 0.04474609 4.75 0.0625 C4.75 0.7225 4.75 1.3825 4.75 2.0625 C3.38671875 3.3671875 3.38671875 3.3671875 1.4375 4.9375 C-1.97254471 7.82436712 -4.97201477 10.87835395 -7.9453125 14.2109375 C-14.88155407 21.88090939 -22.18513735 29.18371911 -29.49633789 36.49414062 C-31.84483601 38.84486669 -34.1851653 41.2035412 -36.52539062 43.5625 C-38.0177417 45.05777833 -39.51056233 46.55258822 -41.00390625 48.046875 C-41.70278458 48.75293884 -42.4016629 49.45900269 -43.12171936 50.1864624 C-43.76676926 50.82843567 -44.41181915 51.47040894 -45.07641602 52.13183594 C-45.92599632 52.98355377 -45.92599632 52.98355377 -46.79273987 53.85247803 C-48.25 55.0625 -48.25 55.0625 -50.25 55.0625 C-50.25 55.7225 -50.25 56.3825 -50.25 57.0625 C-50.91 57.0625 -51.57 57.0625 -52.25 57.0625 C-52.52112171 57.65831554 -52.79224342 58.25413108 -53.07158095 58.86800164 C-54.23455332 61.03373458 -55.37791263 62.44287991 -57.10470486 64.17447376 C-57.69059712 64.76681492 -58.27648938 65.35915607 -58.88013595 65.96944696 C-59.52437722 66.61059102 -60.16861848 67.25173507 -60.8323822 67.91230774 C-61.51645018 68.60090683 -62.20051815 69.28950591 -62.90531546 69.99897164 C-65.20416807 72.31050785 -67.510135 74.6148122 -69.81616211 76.91918945 C-71.46401469 78.57302503 -73.11145556 80.22727091 -74.7585144 81.88189697 C-79.23962294 86.38070165 -83.72723003 90.87296967 -88.21655726 95.36357141 C-91.49284471 98.64151794 -94.76705834 101.92152979 -98.04106601 105.20175311 C-106.85074877 114.02805143 -115.66499488 122.84976621 -124.48370104 131.66704867 C-124.98448253 132.16775025 -125.48526402 132.66845182 -126.0012207 133.18432617 C-126.50261818 133.68564189 -127.00401566 134.18695761 -127.520607 134.70346471 C-135.633486 142.81553203 -143.73635942 150.9375118 -151.83470421 159.06408641 C-160.15881441 167.41698271 -168.49041958 175.76233873 -176.8297978 184.09999245 C-181.50793624 188.77746867 -186.18279554 193.45813839 -190.84998894 198.14653969 C-195.24466202 202.56063434 -199.64891435 206.96494464 -204.06055832 211.36207581 C-205.67360679 212.97303959 -207.28328089 214.5873907 -208.88921165 216.20545006 C-232.65199492 240.13595427 -232.65199492 240.13595427 -248.875 240.25 C-249.98875 240.188125 -251.1025 240.12625 -252.25 240.0625 C-251.76042882 234.10462296 -251.26141957 228.14825803 -250.71484375 222.1953125 C-245.89375721 168.33612617 -255.53355449 116.50940195 -270.734375 65.04492188 C-271.25 63.0625 -271.25 63.0625 -271.25 61.0625 C-187.78792934 32.93139096 -103.06740422 8.86382418 0 0 Z " fill="#1F313E" transform="translate(1941.25,369.9375)"/>
<path d="M0 0 C1.32827166 23.57148329 2.41494574 47.14547774 3.30224609 70.73779297 C3.6357464 79.53512546 3.97060111 88.33190982 4.48046875 97.12109375 C4.55031982 98.32693115 4.6201709 99.53276855 4.69213867 100.77514648 C5.28079629 106.94134673 6.46199381 111.99204747 10.25 116.9375 C15.87726612 121.15794959 20.55936522 122.37527092 27.53662109 122.38818359 C28.25470444 122.39344055 28.97278778 122.39869751 29.71263123 122.40411377 C32.06646024 122.41722562 34.4196026 122.40860566 36.7734375 122.3984375 C38.42339201 122.40046122 40.07334565 122.40337514 41.72329712 122.40713501 C45.17466786 122.41154681 48.62580496 122.40516604 52.07714844 122.39111328 C56.48067084 122.37404891 60.88364349 122.38385223 65.28714561 122.40183067 C68.69314643 122.41272261 72.09901908 122.40919704 75.50502396 122.4014473 C77.12758068 122.3994588 78.75014939 122.40185661 80.37269211 122.40888596 C94.32593261 122.61876697 94.32593261 122.61876697 106.8125 116.9375 C109.800757 112.92469774 111.32538921 108.68013497 113 104 C113.66 102.35 114.32 100.7 115 99 C126.385 98.505 126.385 98.505 138 98 C137.443125 101.465 137.443125 101.465 136.875 105 C136.04809093 110.83804093 135.57639203 115.52053851 138 121 C140.34082967 123.34082967 141.86432784 123.93610556 145.15234375 124.12109375 C149.20760618 123.91192048 151.49522489 123.37016841 154.8125 120.9375 C159.22357174 115.01406081 161.45960573 109.1885066 163 102 C167.77092956 100.76597138 172.42469446 100.88734888 177.3125 100.9375 C178.14845703 100.94201172 178.98441406 100.94652344 179.84570312 100.95117188 C181.89716649 100.96289452 183.94859273 100.98082797 186 101 C185.98259766 102.87945312 185.98259766 102.87945312 185.96484375 104.796875 C185.95546284 106.44791517 185.94636296 108.09895696 185.9375 109.75 C185.92912109 110.575 185.92074219 111.4 185.91210938 112.25 C185.90888672 113.04921875 185.90566406 113.8484375 185.90234375 114.671875 C185.89710693 115.4050293 185.89187012 116.13818359 185.88647461 116.89355469 C186.0024891 119.0461849 186.40926729 120.9314135 187 123 C188.37084355 123.25284448 189.74716429 123.47604997 191.125 123.6875 C191.89070313 123.81511719 192.65640625 123.94273437 193.4453125 124.07421875 C196.98917184 123.97126259 199.02577462 122.90254093 202 121 C207.08519128 114.12003532 208.88035795 106.16585813 210.06640625 97.8359375 C211 95 211 95 213.0390625 93.640625 C216.96788593 92.79058932 220.80270839 92.53633277 224.8125 92.375 C225.60076172 92.33632813 226.38902344 92.29765625 227.20117188 92.2578125 C229.1337538 92.16411156 231.06684376 92.08099221 233 92 C233.03738281 93.14597656 233.07476563 94.29195313 233.11328125 95.47265625 C233.17898584 97.00263446 233.24543159 98.53258097 233.3125 100.0625 C233.33505859 100.81466797 233.35761719 101.56683594 233.38085938 102.34179688 C233.67510435 108.52094144 234.91307471 113.33737118 238.8125 118.3125 C243.56890194 121.98172436 248.76462062 122.29333946 254.57836914 122.25878906 C255.3124852 122.2622937 256.04660126 122.26579834 256.80296326 122.26940918 C259.21379229 122.27816495 261.62432457 122.27239988 264.03515625 122.265625 C265.71854203 122.26697328 267.40192744 122.26891517 269.08531189 122.27142334 C272.606473 122.27436614 276.12753239 122.27010363 279.64868164 122.26074219 C284.15677249 122.24933935 288.6646254 122.2559177 293.17270756 122.26788712 C296.64629401 122.27512104 300.11982423 122.27281089 303.5934124 122.26763153 C305.25555894 122.26629973 306.91771062 122.26792627 308.57985115 122.27259064 C310.90371316 122.27768207 313.22719185 122.26990949 315.55102539 122.25878906 C316.23427887 122.26283752 316.91753235 122.26688599 317.62149048 122.27105713 C321.5057138 122.23670491 324.53794284 121.80300495 328 120 C329.26363921 118.18795315 329.26363921 118.18795315 330 116 C330.33596191 115.24654297 330.67192383 114.49308594 331.01806641 113.71679688 C331.55439697 112.48026367 331.55439697 112.48026367 332.1015625 111.21875 C346.39366511 78.67418574 346.39366511 78.67418574 360.6875 72.0625 C370.29708082 68.98018162 379.66783643 68.9983441 389 73 C401.43702493 80.20629062 407.81299992 92.14271467 411.875 105.5625 C414.83095372 118.87314191 414.64492541 133.34684353 407.6796875 145.2578125 C403.0431008 152.12401466 396.89092827 155.76374442 389 158 C374.62604093 159.45439533 362.78527124 155.35613886 350.3359375 148.7421875 C347.12788298 146.95437159 347.12788298 146.95437159 344 146 C343.25556641 146.81404297 343.25556641 146.81404297 342.49609375 147.64453125 C335.92313663 154.56671569 330.20709603 157.76299441 320.49810791 158.13371277 C319.1371088 158.14264064 317.77606717 158.1461483 316.41503906 158.14526367 C315.66798706 158.14862228 314.92093506 158.1519809 314.15124512 158.15544128 C311.68935467 158.16491471 309.22753253 158.16689276 306.765625 158.16796875 C305.04555229 158.17118447 303.32547986 158.17454878 301.60540771 158.17805481 C298.00092943 158.18403751 294.39647509 158.18589565 290.79199219 158.18530273 C286.19124191 158.18520131 281.59064663 158.1988373 276.98993301 158.21607494 C273.43641466 158.22723906 269.8829332 158.22922057 266.32939911 158.22869301 C264.63426938 158.2298671 262.93913852 158.23425658 261.24402618 158.24202538 C235.41266068 158.34930461 235.41266068 158.34930461 226.171875 149.1875 C224.72074682 147.49686523 223.35688354 145.766173 222 144 C221.34 143.34 220.68 142.68 220 142 C219.67128906 142.50789062 219.34257813 143.01578125 219.00390625 143.5390625 C214.40339325 150.19671546 209.1595738 154.27338446 201.6875 157.375 C192.61840697 158.91213441 184.04672503 158.92219882 176 154 C173.64589466 151.88601341 171.64280972 149.71130384 170 147 C170 146.34 170 145.68 170 145 C169.360625 145.70125 168.72125 146.4025 168.0625 147.125 C160.38164133 154.74076665 152.78377992 157.93939214 142.125 158.375 C135.34028678 158.22936853 129.20568667 156.93147314 124.08203125 152.24609375 C122.05904961 149.94441155 120.37126144 147.74252288 119 145 C118.56171875 145.44730469 118.1234375 145.89460937 117.671875 146.35546875 C108.47996161 155.11767887 97.84915832 158.14082978 85.36499023 158.16113281 C84.62421738 158.16609772 83.88344452 158.17106262 83.120224 158.17617798 C80.68300423 158.19071377 78.24584965 158.19758901 75.80859375 158.203125 C74.96978228 158.20595238 74.1309708 158.20877975 73.2667408 158.21169281 C68.82325046 158.22665462 64.37979231 158.23590169 59.9362793 158.24023438 C55.37960298 158.24569887 50.82322852 158.26969258 46.26664639 158.29820633 C42.73441248 158.31697201 39.20224907 158.32204577 35.66996956 158.32357025 C33.99209007 158.32656856 32.31421096 158.33449976 30.63638115 158.34775543 C15.69741321 158.45730851 1.76969139 157.54609012 -9.99609375 147.25390625 C-23.77916612 132.99657763 -23.43591091 109.92925452 -24.16796875 91.35546875 C-24.25250364 89.40981868 -24.33791582 87.46420655 -24.42414856 85.51863098 C-24.60142019 81.46734968 -24.77137195 77.41585637 -24.93530273 73.36401367 C-25.1431221 68.23066217 -25.36448223 63.09801382 -25.5908308 57.96544933 C-25.76701903 53.95444757 -25.93835651 49.94325037 -26.10808754 45.9319706 C-26.18814233 44.04215087 -26.26904925 42.15236701 -26.35091209 40.26262474 C-26.89783346 27.500758 -27.09506126 14.77332728 -27 2 C-23.8825555 0.96085183 -21.27172791 0.68523901 -18 0.4375 C-16.948125 0.35371094 -15.89625 0.26992187 -14.8125 0.18359375 C-9.87246464 -0.0542973 -4.94464937 -0.03520716 0 0 Z M363 103 C360.13819107 106.76432011 357.96726649 110.34047969 357 115 C366.44390881 121.60261819 376.29242651 125.61613374 388 124 C390.38098304 122.03941204 390.38098304 122.03941204 390.375 118.375 C390.2007432 112.71677904 388.18318113 108.28737841 384.28125 104.19921875 C380.49915636 100.84180935 377.87396674 99.17678932 372.6875 98.6875 C368.16838264 99.07047605 366.41456587 100.03081229 363 103 Z " fill="#1D2F3D" transform="translate(888,196)"/>
<path d="M0 0 C0.17681808 0.69998108 0.35363617 1.39996216 0.53581238 2.12115479 C2.21745428 8.77146326 3.90801667 15.41944893 5.60821056 22.06503677 C6.4816443 25.48031293 7.35180692 28.89634849 8.21411133 32.31445312 C9.20942105 36.25914119 10.21963632 40.19988582 11.23046875 44.140625 C11.53276901 45.34736877 11.83506927 46.55411255 12.14653015 47.79742432 C15.70735526 63.0467303 15.70735526 63.0467303 25 75 C29.56127726 77.38218319 33.77943264 77.28979426 38.79980469 77.2746582 C40.11591736 77.2823246 40.11591736 77.2823246 41.45861816 77.29014587 C44.36310657 77.30405098 47.26735719 77.30308113 50.171875 77.30078125 C52.21234219 77.30467421 54.25280857 77.30901011 56.29327393 77.31376648 C60.58388887 77.32123545 64.87442161 77.32093726 69.16503906 77.31567383 C73.51931178 77.31107765 77.873303 77.31781941 82.22753906 77.33618164 C119.21920204 77.49094432 152.86538917 75.48372619 188 63 C163.19899464 52.26444129 141.57934584 46.87119027 115 53 C113.00258111 53.34846647 111.00326637 53.68689463 109 54 C109.63155649 49.66083542 110.31392542 45.33084577 111 41 C111.10183594 40.29456055 111.20367187 39.58912109 111.30859375 38.86230469 C111.62261223 36.6961587 111.96526046 34.53604093 112.3125 32.375 C112.40571533 31.68857422 112.49893066 31.00214844 112.5949707 30.29492188 C113.14239606 27.05319414 113.62609816 25.32350341 116.14453125 23.14453125 C143.30336623 12.25870546 172.88727792 22.50464611 198.20141602 33.2734375 C200.42380264 34.23193385 202.64203703 35.20013747 204.85522461 36.1796875 C214.50264871 40.40538753 223.61646859 43.3556739 234.1875 43.6875 C234.94869141 43.72166016 235.70988281 43.75582031 236.49414062 43.79101562 C238.32897138 43.87179434 240.16445245 43.93759569 242 44 C241.4531899 48.09404591 240.90173485 52.18743632 240.34594727 56.28027344 C240.15749035 57.67300415 239.97030878 59.06590805 239.78442383 60.45898438 C239.51718277 62.4600854 239.24498988 64.46052317 238.97265625 66.4609375 C238.81031494 67.66540527 238.64797363 68.86987305 238.48071289 70.11083984 C238 73 238 73 237 75 C234.94965985 75.35122957 232.88217662 75.60346496 230.8125 75.8125 C216.34047174 77.77604152 205.0388328 84.00251266 192.4609375 90.99609375 C162.6508642 107.50940098 132.29520206 113.13677641 98.4765625 113.203125 C97.49891308 113.20595238 96.52126366 113.20877975 95.51398849 113.21169281 C90.34428393 113.22660652 85.17460673 113.23588643 80.00488281 113.24023438 C74.70066096 113.24572056 69.39669557 113.26977443 64.09255409 113.29820633 C59.9795765 113.31693252 55.86665964 113.32204351 51.75364304 113.32357025 C49.79944831 113.32657265 47.84525403 113.33451824 45.89110184 113.34775543 C16.53035961 113.53252312 16.53035961 113.53252312 6 104 C4.25571855 101.98129495 2.69141148 99.93951089 1.19140625 97.734375 C-0.01893758 95.85941889 -0.01893758 95.85941889 -2 94 C-2.40089844 94.50789063 -2.80179687 95.01578125 -3.21484375 95.5390625 C-11.85526628 106.00161495 -22.53708954 111.2483202 -36 113 C-49.39224375 113.68813901 -61.41058884 113.31137878 -72 104 C-81.08774663 93.46376974 -82.19488776 81.38229305 -82 68 C-75.34443923 66.2362764 -68.86036401 64.65965039 -62 64 C-61.6596875 64.61488281 -61.319375 65.22976563 -60.96875 65.86328125 C-58.13871266 70.58251905 -55.89915402 74.10892053 -50.453125 75.63671875 C-37.92844859 77.49148771 -24.82321185 75.81461487 -14 69 C-12.43797617 66.60318966 -11.89583287 64.88149364 -12.23394775 62.02026367 C-12.76356317 59.57887713 -13.39726178 57.18707011 -14.0703125 54.78125 C-14.30781219 53.88692261 -14.54531189 52.99259521 -14.79000854 52.07116699 C-15.55391171 49.21000807 -16.33936971 46.35526001 -17.125 43.5 C-17.63157401 41.60974046 -18.13679638 39.71911814 -18.640625 37.828125 C-21.02825447 28.921471 -23.507568 20.06254808 -26.33154297 11.28320312 C-27 9 -27 9 -27 7 C-23.25614186 5.62841249 -19.50408803 4.28080868 -15.75 2.9375 C-14.68652344 2.54755859 -13.62304688 2.15761719 -12.52734375 1.75585938 C-11.50253906 1.39169922 -10.47773438 1.02753906 -9.421875 0.65234375 C-8.47924805 0.31195068 -7.53662109 -0.02844238 -6.56542969 -0.37915039 C-3.83630268 -1.03961575 -2.62921889 -0.77005033 0 0 Z " fill="#1D2F3D" transform="translate(225,241)"/>
<path d="M0 0 C4.04489386 1.61669215 6.76642316 4.48453857 9.77832031 7.51953125 C10.34461151 8.08231781 10.91090271 8.64510437 11.49435425 9.22494507 C13.36066702 11.08247044 15.21958718 12.94719782 17.078125 14.8125 C18.37248975 16.10551762 19.66715128 17.39823822 20.96209717 18.69067383 C23.67200778 21.39763755 26.37827154 24.10818211 29.08203125 26.82128906 C32.55463671 30.30531153 36.03617321 33.78024903 39.52046585 37.25257874 C42.1936971 39.91859914 44.86216643 42.58934468 47.52919769 45.26156616 C48.81160248 46.54530841 50.09550367 47.82755756 51.38089752 49.10830688 C53.17189072 50.89424516 54.95638758 52.68642648 56.73925781 54.48046875 C57.27531647 55.01247894 57.81137512 55.54448914 58.36367798 56.09262085 C62 59.77146851 62 59.77146851 62 62 C61.38745361 62.27859863 60.77490723 62.55719727 60.14379883 62.84423828 C38.89486868 72.54093317 17.93531298 82.80766305 -3.03063965 93.09849548 C-10.73119264 96.87526793 -18.45468081 100.60237279 -26.1875 104.3125 C-37.46512484 109.72908719 -48.65728229 115.3063611 -59.83599854 120.92349243 C-68.76418224 125.40908051 -77.71663435 129.8127148 -86.77539062 134.03027344 C-92.53475497 136.73014074 -98.13645905 139.68281295 -103.73510742 142.69946289 C-109.19258563 145.62204337 -114.74803977 148.26633387 -120.36936951 150.85643005 C-125.54080902 153.26167079 -130.58497782 155.85341031 -135.61328125 158.54296875 C-142.74183896 162.32436025 -149.91794508 165.99554622 -157.14453125 169.5859375 C-158.09759155 170.05969315 -159.05065186 170.53344879 -160.03259277 171.02156067 C-163.93031291 172.95685128 -167.82950356 174.88913511 -171.73071289 176.81738281 C-189.9601153 185.83502968 -207.93497575 195.27086828 -225.41796875 205.671875 C-228 207 -228 207 -231 207 C-230.85217248 202.12169183 -228.36110207 199.9677484 -225.01171875 196.80859375 C-222.44035786 194.49686541 -219.85289701 192.20744025 -217.234375 189.94921875 C-214.62148624 187.66979306 -212.06069979 185.33787647 -209.5 183 C-204.01542578 178.00311022 -198.46731169 173.09686934 -192.81640625 168.2890625 C-187.06028544 163.38650179 -181.35220046 158.45949443 -175.8125 153.3125 C-172.18716792 149.94416553 -168.48767607 146.7207798 -164.625 143.625 C-159.58583594 139.57333783 -154.89534229 135.22645384 -150.19189453 130.79736328 C-146.72938522 127.55451548 -143.20713152 124.46570521 -139.5 121.5 C-133.80368295 116.93958074 -128.52680934 111.98265337 -123.20703125 106.99609375 C-118.5360668 102.61883286 -113.70252459 98.4485711 -108.828125 94.30078125 C-107.63513685 93.28418244 -106.44243795 92.26724412 -105.25 91.25 C-104.64631592 90.73518066 -104.04263184 90.22036133 -103.4206543 89.68994141 C-99.47514594 86.30897905 -95.6188291 82.84895643 -91.8125 79.3125 C-88.16586624 75.92475627 -84.44382599 72.68102204 -80.5625 69.5625 C-76.37762693 66.19653735 -72.41685602 62.66823983 -68.5 59 C-63.73908666 54.54127805 -58.83532437 50.36202376 -53.74609375 46.27734375 C-50.73680853 43.78173453 -47.86062978 41.16233195 -45 38.5 C-40.39001057 34.21039593 -35.62216484 30.19588878 -30.71484375 26.24609375 C-27.89326505 23.9116941 -25.19409288 21.48009402 -22.5 19 C-17.17693421 14.10338869 -11.6284655 9.53850869 -6 5 C-3.99287264 3.34160134 -1.99573497 1.67210227 0 0 Z " fill="#6C90AB" transform="translate(1895,203)"/>
<path d="M0 0 C6.69529866 5.49719258 12.73696491 11.60953152 18.83984375 17.7421875 C19.97305199 18.87726406 21.10648362 20.01211763 22.24012756 21.14675903 C25.20308335 24.11350744 28.16302193 27.08324802 31.12231445 30.0536499 C34.15066856 33.0922886 37.18190499 36.12804909 40.21289062 39.1640625 C46.14473089 45.1065826 52.07338261 51.052271 58 57 C56.60999823 59.84457591 55.12675757 62.33683906 53.234375 64.87890625 C52.68152832 65.6251123 52.12868164 66.37131836 51.55908203 67.14013672 C50.96208496 67.9395166 50.36508789 68.73889648 49.75 69.5625 C48.47121176 71.28505054 47.19256988 73.00770974 45.9140625 74.73046875 C45.26083008 75.60880371 44.60759766 76.48713867 43.93457031 77.39208984 C42.12252262 79.83483258 40.32046207 82.28447352 38.5234375 84.73828125 C32.35087493 93.16347441 26.09980755 101.5199076 19.75 109.8125 C14.96863457 116.05879441 10.25352453 122.33244214 5.72119141 128.76171875 C2.26060782 133.66553116 -1.302313 138.48992708 -4.875 143.3125 C-9.8473271 150.03321985 -14.72894227 156.80836372 -19.52856445 163.65332031 C-23.15830879 168.82541992 -26.84958234 173.94986265 -30.5625 179.0625 C-35.47669948 185.84085578 -40.26680383 192.69196742 -44.98828125 199.60546875 C-49.25139844 205.84243972 -53.58178054 212.03286196 -57.90356445 218.22924805 C-66.87640084 231.10611172 -75.74771633 244.04414464 -84.43493652 257.11550903 C-85.85101266 259.24542682 -87.26948602 261.37373188 -88.68847656 263.50170898 C-92.96824483 269.92244687 -97.2368346 276.3497265 -101.46484375 282.8046875 C-102.43877075 284.28545776 -102.43877075 284.28545776 -103.43237305 285.79614258 C-104.61550061 287.59681664 -105.79305175 289.40117115 -106.96411133 291.2097168 C-107.7321106 292.37627808 -107.7321106 292.37627808 -108.515625 293.56640625 C-108.95165039 294.23615479 -109.38767578 294.90590332 -109.83691406 295.59594727 C-110.22073242 296.05928467 -110.60455078 296.52262207 -111 297 C-111.66 297 -112.32 297 -113 297 C-114.63441098 288.80194189 -112.88027008 282.92682225 -110.21484375 275.11328125 C-109.80778702 273.87545898 -109.40073029 272.63763672 -108.9813385 271.36230469 C-107.88358042 268.0285565 -106.76287957 264.7029787 -105.6361084 261.37894058 C-104.69732434 258.60207521 -103.77062297 255.82123373 -102.84337425 253.04049969 C-85.84714416 202.10211548 -65.92455619 152.32781461 -44.83428955 102.95452881 C-43.60361641 100.0713738 -42.37845547 97.18587847 -41.15234375 94.30078125 C-36.29376795 82.89744887 -31.36288224 71.52574504 -26.42578125 60.15625 C-25.67082619 58.4175338 -25.67082619 58.4175338 -24.90061951 56.64369202 C-22.35947678 50.79211398 -19.81673227 44.94124012 -17.27124023 39.09155273 C-16.31082102 36.88274284 -15.35061215 34.67384147 -14.390625 32.46484375 C-13.92793716 31.40035507 -13.46524933 30.33586639 -12.98854065 29.23912048 C-9.71591605 21.69306697 -6.50191315 14.1239148 -3.35943604 6.52268982 C-1.10557365 1.10557365 -1.10557365 1.10557365 0 0 Z " fill="#6C8EAA" transform="translate(1769,76)"/>
<path d="M0 0 C3.78301227 1.56943684 6.17256547 3.93101277 9.04394531 6.81689453 C9.53220795 7.30486511 10.02047058 7.79283569 10.52352905 8.29559326 C12.12984962 9.90330275 13.72897713 11.51797101 15.328125 13.1328125 C16.44298317 14.25140235 17.55828487 15.36955029 18.67401123 16.48727417 C21.60470609 19.42559325 24.52934422 22.36986955 27.45275879 25.31542969 C30.43882725 28.32198262 33.43058859 31.32285882 36.421875 34.32421875 C42.28683456 40.21060686 48.14540732 46.103301 54 52 C52.27927995 55.73860232 50.39808868 57.52467037 47.125 60.0625 C42.92609428 63.40079449 38.91948279 66.83930276 35 70.5 C30.41327079 74.77007217 25.66549239 78.7576498 20.78125 82.6875 C17.22814914 85.64176364 13.8597632 88.76913424 10.47827148 91.91625977 C7.2670095 94.88715628 3.97372185 97.69961077 0.5625 100.4375 C-4.21701922 104.28174639 -8.69320344 108.37089045 -13.16601562 112.56054688 C-16.49137277 115.65765465 -19.88710807 118.59614376 -23.4375 121.4375 C-29.15073515 126.02312295 -34.45201937 130.99745542 -39.79296875 136.00390625 C-44.47594944 140.39242781 -49.32416957 144.57119672 -54.20703125 148.734375 C-55.40907246 149.76016092 -56.61088871 150.7862105 -57.8125 151.8125 C-58.41658691 152.32844727 -59.02067383 152.84439453 -59.64306641 153.37597656 C-64.36113276 157.42003344 -68.97017317 161.56617701 -73.55078125 165.765625 C-76.32981945 168.30088792 -79.15640771 170.77538952 -81.99609375 173.2421875 C-84.22804087 175.20003585 -86.42620859 177.19249902 -88.625 179.1875 C-92.67107903 182.84202299 -96.78738927 186.40259539 -100.9375 189.9375 C-106.24011038 194.45575995 -111.42852731 199.07197131 -116.56640625 203.77734375 C-121.02489278 207.8493804 -125.58497728 211.79842118 -130.18359375 215.7109375 C-136.51703465 221.10471966 -142.77148385 226.55557341 -148.87963867 232.20385742 C-152.17429282 235.25040179 -155.51967853 238.2251706 -158.91015625 241.1640625 C-163.32943236 245.04641722 -167.65727465 249.03247335 -172 253 C-174.21460728 249.67808908 -174.53920536 248.85269816 -174 245 C-172.71353719 242.64130033 -171.41558049 240.54089424 -169.890625 238.34765625 C-169.45672455 237.70383499 -169.0228241 237.06001373 -168.57577515 236.39668274 C-167.14441822 234.27790592 -165.6973032 232.17040884 -164.25 230.0625 C-163.24540959 228.58168664 -162.24200647 227.10006718 -161.23974609 225.61767578 C-159.17651727 222.56794293 -157.10803121 219.52187596 -155.03613281 216.47802734 C-152.21247748 212.32257511 -149.42268444 208.14559114 -146.6484375 203.95703125 C-146.22737732 203.3214328 -145.80631714 202.68583435 -145.37249756 202.03097534 C-144.53679231 200.76928812 -143.7011189 199.5075798 -142.86547852 198.24584961 C-134.72798605 185.97314645 -126.4078187 173.83789697 -117.94873047 161.78417969 C-115.92716243 158.89593589 -113.91713999 155.99995732 -111.91015625 153.1015625 C-105.24447531 143.47766884 -98.53191911 133.89641239 -91.65161133 124.42456055 C-88.0596051 119.478237 -84.51559805 114.50088349 -81 109.5 C-70.78348442 94.98267717 -60.3077451 80.65813509 -49.75732422 66.38232422 C-48.0224021 64.0303695 -46.29344856 61.67415161 -44.56640625 59.31640625 C-37.80369794 50.09208366 -30.94055888 40.9535376 -23.98779297 31.87158203 C-18.74866941 25.01590219 -13.60688765 18.09303885 -8.515625 11.12695312 C-5.75275439 7.35125134 -2.96229112 3.6237736 0 0 Z " fill="#6C8FAB" transform="translate(1834,142)"/>
<path d="M0 0 C2.90750042 2.08389289 5.4213933 4.49938895 7.9296875 7.03515625 C8.72814087 7.84206909 8.72814087 7.84206909 9.54272461 8.6652832 C18.3082539 17.70200823 23.09533085 26.17233798 23.4921875 38.91015625 C23.10155042 54.58251602 13.87831656 64.99960132 3.15625 75.671875 C1.0546875 77.47265625 1.0546875 77.47265625 -0.9453125 77.47265625 C-1.2753125 78.46265625 -1.6053125 79.45265625 -1.9453125 80.47265625 C-3.57084533 82.17946572 -5.23647245 83.8492582 -6.9453125 85.47265625 C-7.2753125 85.80265625 -7.6053125 86.13265625 -7.9453125 86.47265625 C-10.90588683 86.7650825 -13.85303271 86.99875163 -16.8203125 87.19921875 C-18.74967505 87.34027342 -20.67895209 87.48250138 -22.6081543 87.62573242 C-23.63838715 87.70165619 -24.66862 87.77757996 -25.73007202 87.85580444 C-67.67575469 91.01097719 -108.85297178 97.57964827 -149.9453125 106.47265625 C-150.6619104 106.6264978 -151.3785083 106.78033936 -152.11682129 106.93884277 C-192.65352864 115.64550882 -232.93785999 127.31630659 -272.21875 140.5546875 C-272.93032257 140.79443802 -273.64189514 141.03418854 -274.37503052 141.28120422 C-277.65786822 142.39181062 -280.93334931 143.51888444 -284.20361328 144.66625977 C-285.32493652 145.05354248 -286.44625977 145.4408252 -287.6015625 145.83984375 C-288.56900391 146.18128418 -289.53644531 146.52272461 -290.53320312 146.87451172 C-292.9453125 147.47265625 -292.9453125 147.47265625 -295.9453125 146.47265625 C-279.79600248 137.07809377 -263.33667538 128.41382089 -246.69478512 119.93474293 C-241.85211392 117.46190977 -237.03072072 114.95057743 -232.21582031 112.42415524 C-219.28272358 105.6433931 -206.25909486 99.05587585 -193.1953125 92.53125 C-190.99636136 91.43143598 -188.79746948 90.33150344 -186.59863281 89.23146057 C-182.03124556 86.94703758 -177.46315439 84.66403035 -172.89453125 82.38208008 C-167.10834064 79.49183351 -161.32395519 76.5979952 -155.5401001 73.70307827 C-151.01229483 71.43734847 -146.48351852 69.173565 -141.95446777 66.910326 C-139.82404435 65.84544219 -137.69390519 64.77998942 -135.56408691 63.7138958 C-122.76564138 57.30911304 -109.91513022 51.03073663 -96.99282837 44.87962341 C-91.2180043 42.13032449 -85.47224735 39.32576915 -79.73828125 36.4921875 C-77.66234785 35.46997968 -75.58633598 34.44793123 -73.51025391 33.42602539 C-72.46750305 32.91234406 -71.4247522 32.39866272 -70.35040283 31.86941528 C-53.9785063 23.80831294 -37.58844935 15.79295542 -21.0703125 8.03515625 C-20.36675629 7.70432037 -19.66320007 7.3734845 -18.93832397 7.03262329 C-2.51306779 -0.68125332 -2.51306779 -0.68125332 0 0 Z " fill="#6C90AC" transform="translate(1965.9453125,272.52734375)"/>
<path d="M0 0 C5.8797505 4.87724437 11.26880817 10.13886878 16.65234375 15.5546875 C17.55247696 16.45623566 18.45261017 17.35778381 19.38002014 18.28665161 C21.75072823 20.66198217 24.11924515 23.03945405 26.48669434 25.41802979 C28.91180728 27.85344717 31.33982085 30.28596912 33.76757812 32.71875 C38.51437128 37.47652769 43.25829281 42.2371538 48 47 C46.41444512 52.06933769 44.40154337 56.87339488 42.28125 61.734375 C41.91152573 62.58771927 41.54180145 63.44106354 41.16087341 64.32026672 C40.36147345 66.16474643 39.56097355 68.00874974 38.75949097 69.85232544 C37.03932978 73.80985071 35.32535341 77.77004427 33.61106873 81.7301178 C32.72213008 83.78356147 31.83293657 85.83689484 30.9434967 87.89012146 C-2.15285149 164.29787998 -33.70693914 240.95985592 -60 320 C-61.60577956 317.14420758 -62.27376788 314.98509655 -62.4140625 311.71875 C-62.45297607 310.88811035 -62.49188965 310.0574707 -62.53198242 309.20166016 C-62.56267822 308.3101123 -62.59337402 307.41856445 -62.625 306.5 C-62.66149658 305.56075684 -62.69799316 304.62151367 -62.7355957 303.65380859 C-62.83886784 300.7694443 -62.92322906 297.88518233 -63 295 C-63.02336426 294.1946582 -63.04672852 293.38931641 -63.07080078 292.55957031 C-65.07393146 213.20866249 -42.80379606 135.16057689 -18.58007812 60.48022461 C-13.03781621 43.37370645 -7.76453266 26.21339836 -2.859375 8.91357422 C-1.97541642 5.91665329 -1.00501686 2.95829799 0 0 Z " fill="#6C8EA9" transform="translate(1713,20)"/>
<path d="M0 0 C9.41091951 20.59299522 15.45394242 41.15233334 14 64 C13.97824707 64.67643555 13.95649414 65.35287109 13.93408203 66.04980469 C13.7378432 70.74401488 13.13253237 74.72964361 11 79 C7.10363536 81.93760252 3.04982429 83.19728149 -1.60546875 84.38623047 C-4.14496645 85.037158 -6.64570212 85.78059714 -9.15625 86.53515625 C-28.46018074 92.13775356 -48.88544754 95.51352817 -69 96 C-69.77972168 96.02046387 -70.55944336 96.04092773 -71.36279297 96.06201172 C-94.97262612 96.60461187 -121.6048165 95.8775732 -140.375 79.625 C-150.73435766 69.6468667 -156.94523239 57.76190478 -157.23828125 43.1328125 C-157.6544964 16.3089928 -157.6544964 16.3089928 -152 5 C-149.41536498 5.28250662 -146.83268865 5.5756226 -144.25 5.875 C-143.15558594 5.99294922 -143.15558594 5.99294922 -142.0390625 6.11328125 C-138.33222743 6.55136176 -135.19547828 6.9986215 -132 9 C-132.165 9.86625 -132.33 10.7325 -132.5 11.625 C-133.96890041 22.49924783 -133.51467578 32.86984786 -129 43 C-127.6877979 44.68335415 -126.35823726 46.35356534 -125 48 C-125 48.66 -125 49.32 -125 50 C-124.4534375 50.26941406 -123.906875 50.53882813 -123.34375 50.81640625 C-121.68532789 51.65390942 -120.04056923 52.51872839 -118.40625 53.40234375 C-88.75075305 69.06714254 -48.47377324 62.7654631 -17 56 C-15.33390501 55.66382093 -13.66757295 55.32876946 -12 55 C-15.01533115 38.84137246 -19.09511473 23.76885023 -26.8984375 9.22265625 C-28 7 -28 7 -28 5 C-24.27271829 4.15808127 -20.54289997 3.3279832 -16.8125 2.5 C-15.75740234 2.26152344 -14.70230469 2.02304687 -13.61523438 1.77734375 C-12.08286133 1.43896484 -12.08286133 1.43896484 -10.51953125 1.09375 C-9.58214111 0.88427734 -8.64475098 0.67480469 -7.67895508 0.45898438 C-5.06028801 0.01032912 -2.65060917 -0.08407959 0 0 Z " fill="#1D2F3D" transform="translate(691,262)"/>
<path d="M0 0 C8.91 0 17.82 0 27 0 C27.33 40.59 27.66 81.18 28 123 C20.08 123 12.16 123 4 123 C3.01 118.05 3.01 118.05 2 113 C1.05125 114.0725 0.1025 115.145 -0.875 116.25 C-7.54088109 122.77039559 -14.46480053 124.38051431 -23.5625 124.5 C-30.13545245 124.42073898 -35.39238691 123.65813615 -41 120 C-41.68191406 119.59910156 -42.36382812 119.19820312 -43.06640625 118.78515625 C-52.77039544 112.43244986 -57.36597922 101.72446186 -59.6875 90.75 C-60.90146087 76.18246955 -59.75982671 61.70026753 -51.11328125 49.40625 C-44.3129155 41.66313484 -35.92725824 36.564503 -25.64453125 35.7265625 C-15.86950407 35.45416089 -9.32691466 37.00385121 -1 42 C-0.67 28.14 -0.34 14.28 0 0 Z M-27.51171875 62.90625 C-32.66055134 70.81391265 -32.82577566 78.75694285 -32 88 C-30.44360373 93.26625461 -28.23886201 96.87125906 -24.1875 100.5625 C-19.6153149 102.62446583 -15.78924345 103.81648763 -10.8515625 102.37109375 C-6.04094585 100.23403543 -3.51332161 97.72504463 -1 93 C0.4565272 88.63041839 0.26542961 84.3908797 0.3125 79.8125 C0.34150391 78.89146484 0.37050781 77.97042969 0.40039062 77.02148438 C0.45690551 70.89614005 -0.31606113 66.03296546 -4 61 C-7.92170626 57.63629552 -11.8508766 56.30508327 -17.01953125 56.625 C-21.56632031 57.48593047 -24.6921008 59.35076277 -27.51171875 62.90625 Z " fill="#6B8DA8" transform="translate(331,463)"/>
<path d="M0 0 C8.91 0 17.82 0 27 0 C27.33 40.59 27.66 81.18 28 123 C20.08 123 12.16 123 4 123 C3.01 118.05 3.01 118.05 2 113 C1.05125 114.0725 0.1025 115.145 -0.875 116.25 C-7.54088109 122.77039559 -14.46480053 124.38051431 -23.5625 124.5 C-30.13545245 124.42073898 -35.39238691 123.65813615 -41 120 C-41.68191406 119.59910156 -42.36382812 119.19820312 -43.06640625 118.78515625 C-52.77039544 112.43244986 -57.36597922 101.72446186 -59.6875 90.75 C-60.90146087 76.18246955 -59.75982671 61.70026753 -51.11328125 49.40625 C-44.3129155 41.66313484 -35.92725824 36.564503 -25.64453125 35.7265625 C-15.86950407 35.45416089 -9.32691466 37.00385121 -1 42 C-0.67 28.14 -0.34 14.28 0 0 Z M-27.51171875 62.90625 C-32.66055134 70.81391265 -32.82577566 78.75694285 -32 88 C-30.44360373 93.26625461 -28.23886201 96.87125906 -24.1875 100.5625 C-19.6153149 102.62446583 -15.78924345 103.81648763 -10.8515625 102.37109375 C-6.04094585 100.23403543 -3.51332161 97.72504463 -1 93 C0.4565272 88.63041839 0.26542961 84.3908797 0.3125 79.8125 C0.34150391 78.89146484 0.37050781 77.97042969 0.40039062 77.02148438 C0.45690551 70.89614005 -0.31606113 66.03296546 -4 61 C-7.92170626 57.63629552 -11.8508766 56.30508327 -17.01953125 56.625 C-21.56632031 57.48593047 -24.6921008 59.35076277 -27.51171875 62.90625 Z " fill="#6B8DA8" transform="translate(229,463)"/>
<path d="M0 0 C9.24 0 18.48 0 28 0 C29.80513327 7.82224415 31.56727855 15.57834469 33.04296875 23.45703125 C33.21629227 24.37087082 33.38961578 25.28471039 33.56819153 26.22624207 C34.11037972 29.08787693 34.64901251 31.95016672 35.1875 34.8125 C35.55900734 36.77673763 35.93075037 38.74093071 36.30273438 40.70507812 C37.20453857 45.46954314 38.10315949 50.23459826 39 55 C42.64145811 42.08414329 46.05871782 29.12371133 49.35400391 16.11572266 C49.93725465 13.81625071 50.52320239 11.51747852 51.109375 9.21875 C51.28539246 8.51995728 51.46140991 7.82116455 51.64276123 7.10119629 C52.88701567 2.22596866 52.88701567 2.22596866 54 0 C61.26 0 68.52 0 76 0 C77.69165977 6.88656066 79.38267165 13.77327366 81.07202148 20.66040039 C81.64683364 23.00294236 82.22202606 25.34539105 82.79760742 27.68774414 C83.62518872 31.0559072 84.45139889 34.42440408 85.27734375 37.79296875 C85.53466782 38.83897751 85.79199188 39.88498627 86.05711365 40.96269226 C86.41737389 42.43365105 86.41737389 42.43365105 86.78491211 43.93432617 C86.99587021 44.79370285 87.20682831 45.65307953 87.42417908 46.53849792 C88.00391536 49.01673725 88.51478076 51.50169096 89 54 C90.68612071 48.40223119 91.95174216 42.77532861 93.12890625 37.05078125 C93.4207505 35.64822334 93.4207505 35.64822334 93.7184906 34.21733093 C94.33560533 31.24955529 94.94921884 28.28106998 95.5625 25.3125 C96.17997854 22.33335247 96.79819503 19.35436042 97.41722107 16.37553406 C97.80112472 14.52712718 98.18402809 12.67851219 98.56581116 10.82966614 C98.73946701 9.99166977 98.91312286 9.1536734 99.09204102 8.2902832 C99.31948753 7.18944145 99.31948753 7.18944145 99.55152893 6.06636047 C99.99246974 4.03469617 100.49577732 2.01689071 101 0 C109.91 0 118.82 0 128 0 C124.62346833 12.38061613 124.62346833 12.38061613 122.87109375 18.18041992 C122.68040314 18.81291153 122.48971252 19.44540314 122.29324341 20.09706116 C121.67621835 22.14200429 121.05699987 24.1862741 120.4375 26.23046875 C120.00051444 27.6753017 119.56358519 29.12015168 119.12670898 30.5650177 C118.21671081 33.5732062 117.30551887 36.58103001 116.39355469 39.58862305 C115.23082207 43.4238459 114.07191142 47.26021194 112.91398621 51.09688854 C112.01499269 54.0735848 111.11356285 57.0495392 110.2114563 60.02529335 C109.78325783 61.43908705 109.35589203 62.85313324 108.92941284 64.26744652 C108.33177717 66.24833001 107.73074342 68.22815326 107.12890625 70.20776367 C106.61952515 71.89007332 106.61952515 71.89007332 106.09985352 73.60636902 C104.85544598 77.44602576 103.41723069 81.22071817 102 85 C93.75 85 85.5 85 77 85 C74.57751341 77.73254023 72.42980734 70.49868411 70.46557617 63.10791016 C69.9399752 61.13429431 69.40676241 59.16284101 68.87304688 57.19140625 C66.90212498 49.84320141 65.19913802 42.51590342 64 35 C63.78384033 35.8751123 63.56768066 36.75022461 63.3449707 37.65185547 C59.42577606 53.49310487 55.48375102 69.30687142 51 85 C42.42 85 33.84 85 25 85 C23.01506816 79.70684843 21.19035126 74.54232927 19.63989258 69.13110352 C19.42487595 68.39027023 19.20985931 67.64943695 18.98832703 66.88615417 C18.28733045 64.46794637 17.59083922 62.04846787 16.89453125 59.62890625 C16.40581127 57.93872823 15.91684973 56.24862005 15.42765808 54.55857849 C14.4079177 51.0331812 13.3902652 47.50719061 12.37426758 43.98071289 C11.06925809 39.4512855 9.76026722 34.92302103 8.44989491 30.39514256 C7.44253348 26.91348713 6.43660625 23.43141877 5.43118858 19.94920158 C4.94863134 18.27808021 4.46577357 16.60704558 3.98261452 14.9360981 C3.31101495 12.61216917 2.6411931 10.2877357 1.97192383 7.96313477 C1.77092072 7.26864227 1.5699176 6.57414978 1.36282349 5.85861206 C0 1.11456205 0 1.11456205 0 0 Z " fill="#6B8DA8" transform="translate(946,501)"/>
<path d="M0 0 C8.91 0 17.82 0 27 0 C27.33 15.18 27.66 30.36 28 46 C30.64 43.69 33.28 41.38 36 39 C44.60995754 35.0162883 54.24399092 34.39606157 63.3125 37.4375 C70.89029726 40.96148377 75.51130889 46.9892051 78.4375 54.6875 C80.32264341 60.39365157 81.12686691 65.90989048 81.11352539 71.91357422 C81.11341209 73.62466873 81.11341209 73.62466873 81.11329651 75.37033081 C81.10813522 76.58616852 81.10297394 77.80200623 81.09765625 79.0546875 C81.0962413 80.31137238 81.09482635 81.56805725 81.09336853 82.86282349 C81.08873074 86.1869194 81.0797618 89.51094542 81.06866455 92.83502197 C81.05839401 96.23375843 81.05380389 99.63250235 81.04882812 103.03125 C81.03866895 109.68753909 81.01909071 116.34370657 81 123 C72.09 123 63.18 123 54 123 C53.96261719 119.3390625 53.92523437 115.678125 53.88671875 111.90625 C53.84045503 108.34499269 53.78923884 104.78383845 53.73754883 101.22265625 C53.70437637 98.75527251 53.67632074 96.28781429 53.65356445 93.8203125 C53.61987787 90.26530334 53.56755298 86.71097202 53.51171875 83.15625 C53.50532883 82.06010376 53.4989389 80.96395752 53.49235535 79.83459473 C53.35308135 72.51369315 52.82628129 66.23003576 47.8125 60.5 C44.13856524 58.54056813 41.02669557 58.23413829 37 59 C32.56315632 61.09285079 30.43588152 63.2181051 28.60678101 67.76907349 C27.31969558 72.50124698 27.51600102 77.40493328 27.48828125 82.27734375 C27.46135445 84.02707237 27.46135445 84.02707237 27.43388367 85.81214905 C27.37990621 89.52056312 27.34592426 93.22884938 27.3125 96.9375 C27.27931595 99.45900211 27.24482529 101.98048738 27.20898438 104.50195312 C27.12173876 110.6679859 27.06155943 116.83344371 27 123 C18.09 123 9.18 123 0 123 C0 82.41 0 41.82 0 0 Z " fill="#6B8DA8" transform="translate(468,463)"/>
<path d="M0 0 C8.91 0 17.82 0 27 0 C27.33 14.85 27.66 29.7 28 45 C30.64 43.02 33.28 41.04 36 39 C44.04273531 34.91047357 53.20295295 34.63456598 61.875 37.125 C70.36126969 40.52261072 73.94622839 46.01662958 77.8359375 54.09765625 C79.73507361 58.83275064 80.12404472 63.08640014 80.11352539 68.16723633 C80.11341209 69.99856865 80.11341209 69.99856865 80.11329651 71.86689758 C80.10813522 73.17539169 80.10297394 74.4838858 80.09765625 75.83203125 C80.09578961 77.19251961 80.09436687 78.55300865 80.09336853 79.91349792 C80.08956275 83.48255287 80.07974914 87.05156669 80.06866455 90.62060547 C80.05840863 94.26724684 80.05380707 97.91389511 80.04882812 101.56054688 C80.03865659 108.70706749 80.01908001 115.85347538 80 123 C71.09 123 62.18 123 53 123 C52.96261719 119.09929687 52.92523437 115.19859375 52.88671875 111.1796875 C52.84049168 107.39675324 52.78926212 103.61391746 52.73754883 99.83105469 C52.70431962 97.20448809 52.6762815 94.57785043 52.65356445 91.95117188 C52.61998272 88.17286939 52.56766247 84.39521695 52.51171875 80.6171875 C52.50532883 79.44509735 52.4989389 78.2730072 52.49235535 77.06539917 C52.37220645 69.10950699 52.37220645 69.10950699 49 62 C46.06791771 59.55659809 44.31177679 59.03340466 40.5 58.625 C35.49532021 59.16121569 33.23763075 60.63183564 29.89355469 64.32861328 C26.75311962 69.20959456 27.39649717 75.01528549 27.390625 80.6171875 C27.37408875 81.82948029 27.35755249 83.04177307 27.34051514 84.290802 C27.29203814 88.1522529 27.2706636 92.01330993 27.25 95.875 C27.22184027 98.49741564 27.19191285 101.11981295 27.16015625 103.7421875 C27.08296031 110.16163951 27.04243326 116.57984789 27 123 C18.09 123 9.18 123 0 123 C0 82.41 0 41.82 0 0 Z " fill="#6B8DA8" transform="translate(858,463)"/>
<path d="M0 0 C4.09207635 0.57052988 6.85106105 2.89035647 10 5.375 C10.5667041 5.81690674 11.1334082 6.25881348 11.71728516 6.71411133 C17.7695293 11.50064191 23.40857995 16.68938982 29 22 C29.65613281 22.59167969 30.31226563 23.18335938 30.98828125 23.79296875 C43.14093416 35.10750767 51.1241497 50.73712404 52.21875 67.3125 C52.58547946 81.24821947 49.44512297 94.49436773 39.625 104.875 C29.73770805 113.88103332 17.86829362 117.82967573 4.4921875 117.3828125 C-4.90830586 116.35233336 -13.09333085 113.55599941 -20 107 C-20.61488281 106.42507813 -21.22976562 105.85015625 -21.86328125 105.2578125 C-31.15817567 95.66436687 -33.365296 83.61314005 -33.203125 70.70703125 C-32.24529659 53.22666275 -23.1499554 38.721236 -13 25 C-13.99 23.35 -14.98 21.7 -16 20 C-15.62190186 19.53625977 -15.24380371 19.07251953 -14.85424805 18.59472656 C-13.13119719 16.48046946 -11.4093384 14.36524462 -9.6875 12.25 C-9.09259766 11.52039063 -8.49769531 10.79078125 -7.88476562 10.0390625 C-7.01948242 8.97558594 -7.01948242 8.97558594 -6.13671875 7.890625 C-5.60780029 7.24125977 -5.07888184 6.59189453 -4.53393555 5.92285156 C-2.98181581 3.97720537 -1.48329048 1.9984569 0 0 Z M4.109375 39.87109375 C-2.75861449 47.34173795 -9.53315777 55.37933922 -10 66 C-8.24394161 72.58521896 -4.8493882 75.58669702 0.76953125 79.109375 C6.37084186 81.34597539 13.99211475 81.13873182 19.58984375 79.01953125 C24.14001197 76.26570504 27.12976866 73.43664774 28.9375 68.375 C29.08883138 60.20310534 24.74221036 53.93244824 19.30078125 48.18359375 C12.16540269 40.10693883 12.16540269 40.10693883 4.109375 39.87109375 Z " fill="#1D2F3D" transform="translate(74,239)"/>
<path d="M0 0 C7.66064482 7.3102619 11.22547832 15.94706649 11.75 26.4375 C11.55390428 36.75213463 8.54251221 46.54912761 1.625 54.375 C-11.90262062 66.8393142 -27.79159455 66.6875 -45.4375 66.6875 C-45.4375 80.2175 -45.4375 93.7475 -45.4375 107.6875 C-54.3475 107.6875 -63.2575 107.6875 -72.4375 107.6875 C-72.4375 69.7375 -72.4375 31.7875 -72.4375 -7.3125 C-66.14233642 -8.57153272 -60.49414894 -9.64973554 -54.1875 -9.9375 C-53.45934082 -9.97399658 -52.73118164 -10.01049316 -51.98095703 -10.0480957 C-14.43575714 -11.79638364 -14.43575714 -11.79638364 0 0 Z M-45.4375 11.6875 C-45.4375 22.9075 -45.4375 34.1275 -45.4375 45.6875 C-32.60365653 46.33895832 -32.60365653 46.33895832 -21.625 41.140625 C-18.00320033 37.20540036 -15.487725 33.25347497 -15.41015625 27.74609375 C-15.83948518 21.94464892 -18.0528351 18.0721649 -22.1875 13.9375 C-28.95963717 10.17520157 -38.08307052 9.23602351 -45.4375 11.6875 Z " fill="#6B8EA8" transform="translate(683.4375,478.3125)"/>
<path d="M0 0 C9.9 0 19.8 0 30 0 C33.37467127 7.87423297 33.37467127 7.87423297 34.30273438 11.04833984 C34.51305298 11.75952972 34.72337158 12.4707196 34.94006348 13.20346069 C35.15578003 13.94842804 35.37149658 14.69339539 35.59375 15.4609375 C35.82654663 16.25094147 36.05934326 17.04094543 36.29919434 17.85488892 C37.03685254 20.3604226 37.76875225 22.86758869 38.5 25.375 C39.23218592 27.87498181 39.96563834 30.37458103 40.70080566 32.87368774 C41.15579121 34.42143771 41.60897086 35.96972024 42.05993652 37.51864624 C43.58787428 42.73114985 45.27935174 47.83805521 47 53 C51.29 35.51 55.58 18.02 60 0 C69.57 0 79.14 0 89 0 C86.74938396 10.12777218 86.74938396 10.12777218 85.26342773 14.35424805 C84.93225449 15.3036174 84.60108124 16.25298676 84.25987244 17.23112488 C83.90470047 18.23122086 83.5495285 19.23131683 83.18359375 20.26171875 C82.8082399 21.32880569 82.43288605 22.39589264 82.04615784 23.49531555 C81.25104442 25.75112483 80.45329918 28.00600799 79.65307617 30.26000977 C78.45804041 33.62958338 77.27431102 37.00296807 76.09179688 40.37695312 C72.34496219 51.00957747 68.47426725 61.57255759 64.21484375 72.01171875 C63.86296494 72.87464035 63.51108612 73.73756195 63.14854431 74.62663269 C55.89591858 92.11648663 47.40493815 110.94450533 29 119 C17.90566038 123 17.90566038 123 14 123 C13.15642037 119.940229 12.3269798 116.8767954 11.5 113.8125 C11.26152344 112.94818359 11.02304688 112.08386719 10.77734375 111.19335938 C10.43896484 109.93168945 10.43896484 109.93168945 10.09375 108.64453125 C9.88427734 107.87471924 9.67480469 107.10490723 9.45898438 106.31176758 C8.96461271 103.82176477 8.92166481 101.53218501 9 99 C9.65226562 98.75765625 10.30453125 98.5153125 10.9765625 98.265625 C18.90416537 95.2255413 25.05912876 92.05838748 30 85 C31.56903193 79.74147928 30.29793425 76.05991265 28.26782227 71.17456055 C27.9656076 70.41451218 27.66339294 69.65446381 27.35202026 68.87138367 C26.3538153 66.37076606 25.33525699 63.87898727 24.31640625 61.38671875 C23.61862486 59.64944192 22.9221864 57.91162514 22.22703552 56.17329407 C20.39686108 51.60646277 18.54953823 47.04676705 16.69824219 42.48846436 C14.44638408 36.93493789 12.21447558 31.37337225 9.97983456 25.8129015 C8.24232259 21.49043921 6.50175398 17.16929007 4.75209045 12.85173035 C4.27223442 11.66539505 4.27223442 11.66539505 3.78268433 10.45509338 C3.1826632 8.97207724 2.58130479 7.48960122 1.97840881 6.00775146 C0 1.11228353 0 1.11228353 0 0 Z " fill="#6B8DA8" transform="translate(1162,501)"/>
<path d="M0 0 C8.27421455 7.32259923 10.50846554 17.07984807 11.19689941 27.77038574 C11.55119437 36.22616268 11.61623943 44.68649269 11.69140625 53.1484375 C11.72463015 55.73439178 11.75912437 58.32033007 11.79492188 60.90625 C11.88159822 67.19532447 11.94216036 73.4838731 12.00390625 79.7734375 C4.08390625 79.7734375 -3.83609375 79.7734375 -11.99609375 79.7734375 C-12.98609375 77.4634375 -13.97609375 75.1534375 -14.99609375 72.7734375 C-15.82109375 73.5365625 -16.64609375 74.2996875 -17.49609375 75.0859375 C-25.44038215 81.51441914 -34.23668551 81.61239685 -44.05224609 80.98925781 C-50.81868239 80.23799812 -55.69559409 76.93403709 -59.99609375 71.7734375 C-64.82883604 65.69799005 -66.34301393 59.50654508 -65.93359375 51.8359375 C-64.795956 43.51049763 -60.99659602 36.5545589 -54.421875 31.3046875 C-42.73127624 23.92511469 -29.49877352 22.34926955 -15.99609375 22.7734375 C-16.53752283 21.47279782 -17.10526857 20.1830966 -17.68359375 18.8984375 C-17.99683594 18.17914062 -18.31007813 17.45984375 -18.6328125 16.71875 C-20.46945099 14.09798791 -21.93143703 13.62858959 -24.99609375 12.7734375 C-34.30267935 11.64428599 -41.72210777 13.24581984 -50.23046875 16.6796875 C-52.99609375 17.7734375 -52.99609375 17.7734375 -54.99609375 17.7734375 C-55.83288652 15.14949444 -56.66566317 12.52439366 -57.49609375 9.8984375 C-57.73457031 9.15207031 -57.97304688 8.40570312 -58.21875 7.63671875 C-59.99609375 2 -59.99609375 2 -59.99609375 -0.2265625 C-41.43991663 -7.84681079 -17.58674585 -12.89904436 0 0 Z M-36.05859375 45.0234375 C-38.4608577 48.43310246 -38.99609375 50.61094986 -38.99609375 54.7734375 C-37.40770441 58.34731352 -36.27975017 59.58433322 -32.99609375 61.7734375 C-28.2046511 62.24472694 -25.96709905 62.28642143 -21.68359375 60.0234375 C-19.19395475 57.93908857 -17.61219687 56.55463821 -15.99609375 53.7734375 C-15.63356978 50.26688782 -15.63356978 50.26688782 -15.80859375 46.5234375 C-15.83566406 45.26015625 -15.86273438 43.996875 -15.890625 42.6953125 C-15.92542969 41.73109375 -15.96023438 40.766875 -15.99609375 39.7734375 C-23.53795744 39.59739891 -29.88267579 40.48602839 -36.05859375 45.0234375 Z " fill="#6B8DA8" transform="translate(437.99609375,506.2265625)"/>
<path d="M0 0 C7.57595425 7.57595425 10.04506265 16.5198135 10.20532227 27.00537109 C10.2352401 28.74649673 10.2352401 28.74649673 10.26576233 30.52279663 C10.28247482 31.76050812 10.29918732 32.9982196 10.31640625 34.2734375 C10.33718735 35.55231842 10.35796844 36.83119934 10.37937927 38.14883423 C10.4335522 41.53205204 10.48384226 44.91528165 10.53222656 48.29858398 C10.58265932 51.75770144 10.63823117 55.21673601 10.69335938 58.67578125 C10.80029139 65.45045657 10.90162647 72.22519521 11 79 C3.08 79 -4.84 79 -13 79 C-13.66 76.69 -14.32 74.38 -15 72 C-15.58007812 72.40992188 -16.16015625 72.81984375 -16.7578125 73.2421875 C-17.53898438 73.78101563 -18.32015625 74.31984375 -19.125 74.875 C-19.89070312 75.40867187 -20.65640625 75.94234375 -21.4453125 76.4921875 C-29.19801638 81.06794239 -38.25815341 81.01486779 -47 80 C-54.32850668 78.00553299 -59.93532235 73.38570097 -64 67 C-66.92152294 59.90207179 -67.26465051 51.72364057 -65.27734375 44.30078125 C-61.96986776 36.41372312 -56.76406052 30.59827377 -49 27 C-40.31360946 24.04166357 -31.83414942 21.83517612 -22.625 21.9375 C-21.03558594 21.95103516 -21.03558594 21.95103516 -19.4140625 21.96484375 C-18.61742187 21.97644531 -17.82078125 21.98804688 -17 22 C-17.5878125 20.3603125 -17.5878125 20.3603125 -18.1875 18.6875 C-18.40792969 18.07261719 -18.62835937 17.45773437 -18.85546875 16.82421875 C-20.51323736 14.18197322 -22.17102396 13.29547592 -25 12 C-33.32360818 10.9331172 -40.90977382 11.67106993 -48.6328125 15.02734375 C-51.08061539 16.03312415 -53.39634124 16.55987975 -56 17 C-56.70146314 14.77518771 -57.38565954 12.54492632 -58.0625 10.3125 C-58.44535156 9.07113281 -58.82820312 7.82976563 -59.22265625 6.55078125 C-59.96785758 3.1468214 -59.99851065 1.28440924 -59 -2 C-56.64828157 -2.82022612 -54.2940149 -3.6312654 -51.9375 -4.4375 C-51.28072266 -4.66759766 -50.62394531 -4.89769531 -49.94726562 -5.13476562 C-34.10299863 -10.52025539 -13.61271339 -10.68917763 0 0 Z M-37.0625 44.375 C-39.14905559 47.20194629 -40 48.49717492 -40 52 C-38.49146577 56.77254347 -38.49146577 56.77254347 -35.25 60.4375 C-30.53261465 61.61684634 -27.18345333 61.60332915 -22.8125 59.375 C-19.57215706 56.63871041 -17.79775279 54.87208294 -16 51 C-15.68096945 46.97609856 -15.76543039 43.02677826 -16 39 C-23.75339576 38.56925579 -30.79174466 39.51196525 -37.0625 44.375 Z " fill="#6B8DA8" transform="translate(767,507)"/>
<path d="M0 0 C6.69879431 6.60092231 9.47788539 14.15213574 9.62695312 23.48828125 C9.64367065 24.38691895 9.66038818 25.28555664 9.6776123 26.21142578 C9.69118774 27.17290527 9.70476318 28.13438477 9.71875 29.125 C9.73715942 30.13030762 9.75556885 31.13561523 9.77453613 32.17138672 C9.83314026 35.38503297 9.8859371 38.59873357 9.9375 41.8125 C10.21042423 60.33533159 10.21042423 60.33533159 11.4375 78.8125 C3.1875 78.8125 -5.0625 78.8125 -13.5625 78.8125 C-14.2225 76.5025 -14.8825 74.1925 -15.5625 71.8125 C-16.18125 72.39 -16.8 72.9675 -17.4375 73.5625 C-26.53239351 80.11082333 -35.70301825 80.73744009 -46.5625 79.8125 C-52.6273734 78.69211881 -57.52590097 75.4023385 -61.5625 70.8125 C-66.42242716 63.03661655 -67.71686411 55.43156027 -66.13671875 46.37109375 C-63.82632157 38.22091965 -58.20305017 32.10071219 -50.93359375 27.90625 C-40.0865454 22.90266921 -29.34793603 21.62069363 -17.5625 21.8125 C-18.1503125 20.1728125 -18.1503125 20.1728125 -18.75 18.5 C-18.97042969 17.88511719 -19.19085937 17.27023437 -19.41796875 16.63671875 C-21.0659245 14.01011351 -22.76058647 13.1117113 -25.5625 11.8125 C-34.95290561 10.51120784 -42.86978602 12.46190282 -51.5625 15.8125 C-52.88961192 16.16979936 -54.22108186 16.51335746 -55.5625 16.8125 C-57.98112058 10.87588584 -59.4632105 5.12371503 -60.5625 -1.1875 C-42.31722997 -9.53001439 -16.73730004 -13.91531341 0 0 Z M-38.5625 45.8125 C-40.11274464 48.91298928 -39.85242015 51.39144218 -39.5625 54.8125 C-37.76687595 57.56579021 -36.50995078 59.33877461 -33.5625 60.8125 C-27.46182061 61.41060582 -24.42337223 60.27119755 -19.5625 56.8125 C-16.53093557 52.8357596 -16.22535827 49.93817723 -16.375 45 C-16.40207031 43.83855469 -16.42914062 42.67710937 -16.45703125 41.48046875 C-16.50923828 40.15982422 -16.50923828 40.15982422 -16.5625 38.8125 C-24.61230096 38.28751298 -32.69644446 39.94644446 -38.5625 45.8125 Z " fill="#6B8DA8" transform="translate(1144.5625,507.1875)"/>
<path d="M0 0 C14.19997539 28.17455434 27.3729274 62.91277943 17.3203125 94.58203125 C10.41683653 112.45345573 -0.05055398 126.5813061 -17.578125 134.9921875 C-28.02942583 139.3412772 -41.33823916 140.07361165 -52.1875 136.375 C-57.95329991 133.82858995 -63.52986002 130.47013998 -68 126 C-68.15650001 117.99241605 -66.43364283 109.85023841 -65 102 C-64.45472656 102.19335938 -63.90945313 102.38671875 -63.34765625 102.5859375 C-50.32849014 107.08144443 -37.8097903 109.73792234 -24.7890625 103.60546875 C-15.39417815 98.19748911 -9.9338689 90.66788386 -5.625 80.875 C-4.17787564 74.21822795 -5.09225597 68.10225261 -6.8125 61.625 C-7.02334229 60.82698975 -7.23418457 60.02897949 -7.45141602 59.20678711 C-11.74774543 43.998962 -18.62569777 29.37524435 -25.88305664 15.37866211 C-27 13 -27 13 -27 11 C-22.87762652 9.1607188 -18.75168422 7.32958658 -14.625 5.5 C-13.449375 4.97535156 -12.27375 4.45070313 -11.0625 3.91015625 C-9.94101562 3.41386719 -8.81953125 2.91757812 -7.6640625 2.40625 C-6.10872803 1.71499023 -6.10872803 1.71499023 -4.52197266 1.00976562 C-2 0 -2 0 0 0 Z " fill="#1D2F3D" transform="translate(820,264)"/>
<path d="M0 0 C9.34311865 7.92640776 12.75998789 18.91107844 14.03515625 30.7265625 C14.37772064 35.89137951 13.77391318 40.55526402 13.03515625 45.7265625 C-4.78484375 45.7265625 -22.60484375 45.7265625 -40.96484375 45.7265625 C-36.94682261 53.76260477 -35.70529123 55.75137605 -27.96484375 58.9765625 C-16.99860631 61.64597556 -5.69983496 59.25244279 5.03515625 56.7265625 C6.5837897 61.0080785 7.51667989 65.09722799 8.16015625 69.6015625 C8.32773438 70.75398437 8.4953125 71.90640625 8.66796875 73.09375 C8.78914063 73.96257812 8.9103125 74.83140625 9.03515625 75.7265625 C-5.37600023 82.61885473 -25.16629428 83.44671264 -40.46484375 79.1015625 C-50.72981677 75.15243749 -58.35527084 69.09930716 -63.25 59.1015625 C-68.48746716 46.48658783 -68.94429633 31.52798917 -63.96484375 18.7265625 C-63.63613281 17.87707031 -63.30742188 17.02757812 -62.96875 16.15234375 C-58.34932146 5.71467302 -50.51103288 -1.15869485 -39.96484375 -5.2734375 C-26.60462494 -10.02876962 -11.50520823 -8.23829725 0 0 Z M-37.21484375 16.1640625 C-39.90772713 20.10721316 -40.96484375 21.84826564 -40.96484375 26.7265625 C-31.39484375 26.7265625 -21.82484375 26.7265625 -11.96484375 26.7265625 C-12.84617455 18.13510096 -12.84617455 18.13510096 -17.96484375 12.7265625 C-24.95597537 8.78284723 -31.85906613 10.36197007 -37.21484375 16.1640625 Z " fill="#6B8DA8" transform="translate(145.96484375,506.2734375)"/>
<path d="M0 0 C0.98855748 3.35705509 1.20685457 6.52366333 1.34803772 10.01460266 C1.39989731 11.24686584 1.4517569 12.47912903 1.50518799 13.74873352 C1.5583071 15.11153865 1.61134389 16.47434699 1.66430664 17.8371582 C1.72321205 19.27466261 1.78248121 20.71215214 1.84208679 22.14962769 C2.00284807 26.05248168 2.15840791 29.95552753 2.31296849 33.85863137 C2.47563278 37.94608609 2.64280967 42.03335635 2.80943298 46.12065125 C3.08872562 52.98779419 3.36487429 59.85505771 3.63891602 66.72241211 C3.990245 75.52612874 4.34674876 84.32962777 4.7049036 93.13306904 C5.01314827 100.71081329 5.31897213 108.28865497 5.62442851 115.86651206 C5.72250909 118.29713446 5.82092562 120.7277431 5.91938972 123.15834999 C6.07428179 126.98564755 6.22765905 130.81300306 6.37988472 134.64040756 C6.43583994 136.04202753 6.49226539 137.44362883 6.54920578 138.84520912 C6.6271033 140.76490188 6.70306656 142.68467283 6.77894592 144.60444641 C6.82189317 145.67682714 6.86484041 146.74920786 6.90908909 147.85408497 C7.00678472 151.23478109 7 154.61789256 7 158 C-2.24 158 -11.48 158 -21 158 C-21.78449042 139.13676092 -22.56726016 120.27345298 -23.34690857 101.4100132 C-23.70899482 92.65073673 -24.07184695 83.89149326 -24.43652344 75.13232422 C-24.75449787 67.49484523 -25.07101353 59.85730739 -25.38580227 52.2196964 C-25.55241761 48.1783878 -25.71974655 44.13711169 -25.88882446 40.0959053 C-26.04820592 36.28590522 -26.20562479 32.47582892 -26.36159134 28.66568756 C-26.41892163 27.27338343 -26.47694578 25.88110766 -26.53574753 24.4888649 C-26.85212377 16.98799399 -27.08672098 9.50798478 -27 2 C-19.61343104 -1.69328448 -8.1112475 -0.13153374 0 0 Z " fill="#1D2F3D" transform="translate(753,196)"/>
<path d="M0 0 C-0.57021375 6.95660771 -2.01302694 13.31427305 -4 20 C-4.59167969 19.79503906 -5.18335938 19.59007812 -5.79296875 19.37890625 C-14.16748944 16.52364553 -22.24051108 14.49728888 -31 17 C-31 19.31 -31 21.62 -31 24 C-22.58510542 28.34298361 -22.58510542 28.34298361 -13.8125 31.875 C-7.04367452 34.49519051 -1.79077066 39.08999768 2 45.25 C5.02914346 53.58014451 5.0400474 61.51027125 1.38671875 69.67578125 C-2.73132088 76.57784767 -9.52881583 80.50513419 -17 83 C-30.52480947 86.09081842 -47.59678192 85.57313401 -60 79 C-59.42978625 72.04339229 -57.98697306 65.68572695 -56 59 C-55.35933594 59.19335938 -54.71867187 59.38671875 -54.05859375 59.5859375 C-52.25662 60.12840948 -50.45314033 60.66589621 -48.6484375 61.19921875 C-46.6056109 61.81688756 -44.57969076 62.49065228 -42.5625 63.1875 C-37.16138265 64.41933378 -31.00753105 65.1491771 -25.73046875 63.1328125 C-23.77442693 62.08246527 -23.77442693 62.08246527 -23 59.625 C-22.74013461 56.95299097 -22.74013461 56.95299097 -24.421875 55.07421875 C-28.02919156 52.17196861 -31.95337474 50.82823182 -36.25 49.1875 C-45.26132446 45.55347768 -53.29185082 41.7508787 -57.375 32.36328125 C-59.34383558 24.9186217 -58.97626922 16.86032185 -55.38671875 9.99609375 C-50.40580122 2.82637866 -43.08629114 -1.42595919 -34.734375 -3.5859375 C-22.72293079 -5.40481334 -11.43669768 -3.81223256 0 0 Z " fill="#6B8DA8" transform="translate(1314,503)"/>
<path d="M0 0 C8.91 0 17.82 0 27 0 C27.06801465 10.87536777 27.1229533 21.75059224 27.15543652 32.62612534 C27.17103372 37.67710071 27.19216233 42.72792192 27.22631836 47.77880859 C27.25912517 52.66122179 27.27689763 57.54348751 27.28463173 62.4260025 C27.29013721 64.28055388 27.30088712 66.13509799 27.31719017 67.98958588 C27.43686106 82.17790133 27.31534623 96.82946499 17.21484375 107.96875 C7.87047123 116.73722679 -1.95941791 118.17968654 -14.3125 118.1875 C-15.82360352 118.20586914 -15.82360352 118.20586914 -17.36523438 118.22460938 C-23.2730255 118.23615555 -28.34021783 117.71078242 -34 116 C-33.55761615 108.46783285 -32.86094772 101.3197277 -31 94 C-29.865625 94.10699219 -28.73125 94.21398437 -27.5625 94.32421875 C-16.33894985 95.59032881 -16.33894985 95.59032881 -6 92 C-1.29213392 86.21963188 -0.85014395 80.27102486 -0.79467773 73.11035156 C-0.78477814 72.31972824 -0.77487854 71.52910492 -0.76467896 70.71452332 C-0.73314339 68.10658746 -0.70833799 65.4986334 -0.68359375 62.890625 C-0.66301736 61.08029716 -0.64202071 59.26997405 -0.62062073 57.45965576 C-0.5654708 52.69874914 -0.51603033 47.93779966 -0.46777344 43.17681885 C-0.4175067 38.31705926 -0.36184764 33.45736178 -0.30664062 28.59765625 C-0.19914562 19.06515528 -0.09817986 9.53260146 0 0 Z " fill="#6B8DA8" transform="translate(37,469)"/>
<path d="M0 0 C0 7.92 0 15.84 0 24 C6.27 24 12.54 24 19 24 C19 30.6 19 37.2 19 44 C12.73 44 6.46 44 0 44 C0.07425367 48.85721444 0.15730476 53.71267185 0.26245117 58.5690918 C0.2955636 60.2187366 0.32363756 61.86849096 0.34643555 63.51831055 C0.38023533 65.89939768 0.43256004 68.27949306 0.48828125 70.66015625 C0.49467117 71.38960953 0.5010611 72.11906281 0.50764465 72.87062073 C0.6498881 77.90233342 1.65510343 81.52331394 4 86 C6.76452033 87.38226016 9.0461363 87.09525387 12.125 87.0625 C15.033125 87.0315625 15.033125 87.0315625 18 87 C18 93.93 18 100.86 18 108 C12.26817646 109.91060785 8.48057117 110.33551718 2.625 110.3125 C1.81289063 110.32861328 1.00078125 110.34472656 0.1640625 110.36132812 C-6.94681986 110.36702595 -12.26726644 108.8393399 -18.25 104.8125 C-23.93236251 99.00099288 -26.13626898 92.37548729 -26.11352539 84.30151367 C-26.11344986 83.40095749 -26.11337433 82.50040131 -26.11329651 81.57255554 C-26.10813522 80.6140419 -26.10297394 79.65552826 -26.09765625 78.66796875 C-26.0962413 77.67622147 -26.09482635 76.68447418 -26.09336853 75.66267395 C-26.08778418 72.50425157 -26.07523452 69.34590085 -26.0625 66.1875 C-26.05748298 64.04231873 -26.05292042 61.89713635 -26.04882812 59.75195312 C-26.03781987 54.5012746 -26.02056597 49.25064944 -26 44 C-29.96 44 -33.92 44 -38 44 C-38 37.4 -38 30.8 -38 24 C-34.04 24 -30.08 24 -26 24 C-26 18.06 -26 12.12 -26 6 C-23.1047827 5.18525038 -20.20887172 4.37312678 -17.3125 3.5625 C-16.49587891 3.33240234 -15.67925781 3.10230469 -14.83789062 2.86523438 C-4.58118207 0 -4.58118207 0 0 0 Z " fill="#6B8DA8" transform="translate(825,477)"/>
<path d="M0 0 C4.07592745 2.23022446 6.24910972 4.68571945 8.3125 8.8125 C9.35550393 22.1492716 9.35550393 22.1492716 6.6875 26.5 C2.34516598 30.72806207 -1.1960795 31.99798638 -7.1875 32.25 C-13.61395882 32.04944565 -16.6801777 29.92547084 -21.0625 25.3125 C-23.69010148 19.65305065 -23.77697343 13.63246622 -22.0625 7.62109375 C-19.99948621 3.35691793 -16.96501323 1.27293161 -12.765625 -0.53125 C-8.08066487 -2.01071109 -4.60672778 -1.48352251 0 0 Z " fill="#1D2F3D" transform="translate(400.6875,371.1875)"/>
<path d="M0 0 C4.15444567 4.26377319 4.87032202 7.02241079 5.25 12.8125 C5.17008886 17.10372804 4.16681873 20.24418087 2 24 C-3.24974754 28.15605014 -7.32281861 29.54730995 -14 29 C-17.97873254 27.65672149 -21.09780711 25.98950188 -23.9375 22.875 C-25.9470919 17.43728073 -26.99300869 11.65372149 -24.8125 6.125 C-19.05862141 -3.79548032 -10.01715482 -5.48108471 0 0 Z " fill="#1D2F3D" transform="translate(70,194)"/>
<path d="M0 0 C4.64351481 4.41133907 5.69605754 8.08191911 5.9375 14.375 C5.79802997 19.49101421 5.12915068 22.54967901 1.5 26.375 C-2.44621306 29.96246642 -6.66624628 29.88096541 -11.7734375 29.72265625 C-16.01602402 29.18169608 -18.1297225 28.04313635 -21.5 25.375 C-25.33836862 20.29844795 -25.28957323 14.48753882 -24.5 8.375 C-23.2364598 4.42732921 -21.27075239 1.957764 -17.9375 -0.5625 C-11.7441608 -2.47680484 -5.93517626 -2.75561755 0 0 Z " fill="#1D2F3D" transform="translate(608.5,229.625)"/>
<path d="M0 0 C3.47572269 1.93618595 5.30600391 3.49015742 6.75 7.3125 C8.0233676 13.0426542 8.07863617 17.80845087 5.75 23.3125 C1.81704666 28.09582162 -1.46266147 29.99695224 -7.5625 30.6875 C-13.08671719 30.1257152 -17.41277848 28.32751715 -21.1875 24.1875 C-23.56711537 17.74854078 -24.13660999 11.38362647 -21.33984375 5.00390625 C-16.64046345 -2.28939723 -7.36636801 -3.36438171 0 0 Z " fill="#1D2F3D" transform="translate(103.25,192.6875)"/>
<path d="M0 0 C4.3595208 3.46982268 5.68891823 6.53290175 6.375 11.8671875 C6.66918177 17.91630019 5.78685869 21.63503748 2.0625 26.4375 C-3.00523815 30.26920446 -8.83275865 30.23693042 -14.9375 29.4375 C-19.08529233 27.585807 -20.51824741 26.1502294 -22.8125 22.25 C-24.6207248 16.12212708 -24.91564139 10.99853371 -22.3125 5.0625 C-17.80936822 -2.78670886 -7.75577753 -3.81216184 0 0 Z " fill="#1D2F3D" transform="translate(643.9375,229.5625)"/>
<path d="M0 0 C4.88545589 4.09994959 9.49433139 8.35259819 13.9919281 12.87167358 C14.65944456 13.53833562 15.32696101 14.20499765 16.01470524 14.89186156 C18.23410601 17.10962503 20.4499314 19.33092546 22.66577148 21.55224609 C24.26262792 23.14938481 25.85970499 24.74630295 27.45698547 26.34301758 C31.78098888 30.66673459 36.10190647 34.99352348 40.42227054 39.3208766 C44.94216101 43.84702681 49.46489168 48.37033716 53.98731995 52.89395142 C61.57380758 60.483192 69.15854751 68.0741742 76.74194336 75.66650391 C84.55033686 83.48408671 92.35978762 91.30061087 100.1706543 99.11572266 C100.65270852 99.5980396 101.13476274 100.08035654 101.63142466 100.57728915 C104.04993252 102.99710212 106.46846109 105.41689438 108.88699996 107.83667636 C128.92787849 127.88790923 148.9650929 147.94280068 169 168 C168.34 168.66 167.68 169.32 167 170 C145.71653412 148.78491877 124.44070306 127.56220461 103.17556086 106.32875685 C100.66706499 103.82401326 98.15850384 101.31933506 95.64990234 98.81469727 C95.15046968 98.31605153 94.65103701 97.81740579 94.13647002 97.30364958 C86.04131693 89.22156325 77.94088274 81.14478987 69.83849686 73.06995525 C61.52962514 64.78910243 53.22642547 56.50259428 44.92850351 48.210769 C40.26541977 43.55160621 35.59970507 38.89514674 30.92771912 34.24490929 C26.53502633 29.87250057 22.14933886 25.49318905 17.76904106 21.10836411 C16.15589029 19.49604217 14.54014563 17.88631088 12.9216938 16.27931023 C10.72083626 14.09327002 8.52930421 11.89829688 6.33996582 9.70072937 C5.69017745 9.05967953 5.04038909 8.41862969 4.37091017 7.75815409 C0 3.34236363 0 3.34236363 0 0 Z " fill="#3A424C" transform="translate(1401,334)"/>
<path d="M0 0 C3.14292825 0.57880776 4.77840178 1.40497171 7.02459717 3.66383362 C7.59384415 4.2289566 8.16309113 4.79407959 8.74958801 5.37632751 C9.36170639 5.99923172 9.97382477 6.62213593 10.60449219 7.26391602 C11.58560219 8.2443689 11.58560219 8.2443689 12.58653259 9.24462891 C14.74716658 11.40735326 16.89698004 13.58051059 19.046875 15.75390625 C20.54265988 17.25528617 22.03910838 18.7560052 23.53619385 20.25608826 C27.47522946 24.20657974 31.4051732 28.16599748 35.33331299 32.12731934 C39.34307524 36.16776622 43.36134051 40.19973685 47.37890625 44.23242188 C55.26096597 52.14665888 63.13345005 60.07034861 71 68 C70.34 68.66 69.68 69.32 69 70 C60.00059483 61.02371297 51.00385336 52.04476574 42.01055145 43.06236362 C37.83501468 38.89205684 33.6585481 34.72269 29.47998047 30.55541992 C25.45133321 26.53759743 21.42509735 22.51737331 17.40055847 18.49543571 C15.86075906 16.9574913 14.32007643 15.42043067 12.77851868 13.88424873 C10.62803132 11.74096635 8.48063887 9.59463004 6.33398438 7.44750977 C5.68878342 6.80590408 5.04358246 6.1642984 4.37882996 5.50325012 C0 1.11405216 0 1.11405216 0 0 Z " fill="#3D444E" transform="translate(1591,526)"/>
<path d="M0 0 C0 0.66 0 1.32 0 2 C0.61875 1.79375 1.2375 1.5875 1.875 1.375 C2.926875 1.189375 2.926875 1.189375 4 1 C4.66 1.66 5.32 2.32 6 3 C2.21359437 4.31157106 -1.57665104 5.61128671 -5.37084961 6.90014648 C-6.66102315 7.34026227 -7.95010124 7.783603 -9.23803711 8.23022461 C-11.08937119 8.87159237 -12.94503259 9.50042604 -14.80078125 10.12890625 C-15.91622314 10.51119385 -17.03166504 10.89348145 -18.1809082 11.28735352 C-21 12 -21 12 -24 11 C-20.57204403 8.96263414 -17.13124835 6.94803801 -13.6875 4.9375 C-12.71103516 4.35677734 -11.73457031 3.77605469 -10.72851562 3.17773438 C-9.79072266 2.63310547 -8.85292969 2.08847656 -7.88671875 1.52734375 C-7.02264404 1.01937256 -6.15856934 0.51140137 -5.26831055 -0.01196289 C-3 -1 -3 -1 0 0 Z " fill="#789CB8" transform="translate(1694,408)"/>
<path d="M0 0 C0.66 0.66 1.32 1.32 2 2 C1.21625 2.86625 0.4325 3.7325 -0.375 4.625 C-2.34169031 6.94132414 -3.02846002 8.10164292 -3.875 11.125 C-5.55043016 15.40665484 -7.86746202 16.11498268 -12 18 C-12.99 18 -13.98 18 -15 18 C-14.85203603 13.11718898 -12.33980971 10.94542593 -8.98828125 7.78125 C-6.03352245 5.13415764 -3.04269958 2.5459323 0 0 Z " fill="#6F96B3" transform="translate(1679,392)"/>
<path d="M0 0 C3.98416091 0.54365542 5.78363228 2.43465185 8.546875 5.25390625 C9.39121094 6.10791016 10.23554687 6.96191406 11.10546875 7.84179688 C11.97816406 8.73962891 12.85085938 9.63746094 13.75 10.5625 C14.63816406 11.46419922 15.52632812 12.36589844 16.44140625 13.29492188 C18.63448315 15.52337098 20.82026044 17.75851593 23 20 C22.34 20.66 21.68 21.32 21 22 C18.00611124 19.03075698 15.01546454 16.05829855 12.02783203 13.08276367 C11.01017212 12.0701449 9.99161821 11.05842377 8.97216797 10.04760742 C7.51035593 8.5978706 6.05174758 7.14497792 4.59375 5.69140625 C3.71396484 4.81685791 2.83417969 3.94230957 1.92773438 3.04125977 C0 1 0 1 0 0 Z " fill="#434B53" transform="translate(1591,526)"/>
<path d="M0 0 C0.66 0 1.32 0 2 0 C0.55613874 7.21930632 -1.57788174 14.05110733 -4 21 C-5.78409802 17.93753253 -6.22880021 15.77920727 -6.125 12.25 C-6.10695313 11.45078125 -6.08890625 10.6515625 -6.0703125 9.828125 C-6.04710937 9.22484375 -6.02390625 8.6215625 -6 8 C-5.67 9.32 -5.34 10.64 -5 12 C-4.34 12 -3.68 12 -3 12 C-2.86722656 11.38511719 -2.73445313 10.77023437 -2.59765625 10.13671875 C-2.42105469 9.32847656 -2.24445313 8.52023437 -2.0625 7.6875 C-1.88847656 6.88699219 -1.71445313 6.08648437 -1.53515625 5.26171875 C-1 3 -1 3 0 0 Z " fill="#7B9EB8" transform="translate(1657,319)"/>
<path d="M0 0 C0 0.66 0 1.32 0 2 C-2.9826906 3.52448631 -5.818202 4.93940067 -9 6 C-9.99 7.485 -9.99 7.485 -11 9 C-11.99 9.495 -11.99 9.495 -13 10 C-13.33 8.02 -13.66 6.04 -14 4 C-12.23141309 3.32739649 -10.46003984 2.66211605 -8.6875 2 C-7.70136719 1.62875 -6.71523437 1.2575 -5.69921875 0.875 C-3 0 -3 0 0 0 Z " fill="#404952" transform="translate(1684,427)"/>
<path d="M0 0 C0.99 0.33 1.98 0.66 3 1 C3 1.66 3 2.32 3 3 C3.61875 2.79375 4.2375 2.5875 4.875 2.375 C5.926875 2.189375 5.926875 2.189375 7 2 C7.66 2.66 8.32 3.32 9 4 C4.82262526 5.59138085 1.46839215 6.21278058 -3 6 C-3 5.34 -3 4.68 -3 4 C-3.66 3.67 -4.32 3.34 -5 3 C-2.6875 1.4375 -2.6875 1.4375 0 0 Z " fill="#7197B3" transform="translate(1691,407)"/>
<path d="M0 0 C4.52615993 3.67832017 8.39424999 7.41086363 12 12 C9 12 9 12 6.51953125 9.8125 C5.62621094 8.884375 4.73289062 7.95625 3.8125 7 C2.91144531 6.071875 2.01039062 5.14375 1.08203125 4.1875 C0.39496094 3.465625 -0.29210938 2.74375 -1 2 C-0.67 1.34 -0.34 0.68 0 0 Z " fill="#474E58" transform="translate(1572,505)"/>
<path d="M0 0 C0.99 0.33 1.98 0.66 3 1 C2.67 2.65 2.34 4.3 2 6 C2.66 6 3.32 6 4 6 C3.49396008 8.16874252 3.00016187 9.99967627 2 12 C1.34 12 0.68 12 0 12 C-0.19573608 10.56359829 -0.38127816 9.12580496 -0.5625 7.6875 C-0.66691406 6.88699219 -0.77132813 6.08648437 -0.87890625 5.26171875 C-1 3 -1 3 0 0 Z " fill="#749AB6" transform="translate(1656,361)"/>
<path d="M0 0 C-1.40844718 3.21524305 -3.10344786 5.32183868 -5.625 7.75 C-6.57246094 8.67039062 -6.57246094 8.67039062 -7.5390625 9.609375 C-8.02117187 10.06828125 -8.50328125 10.5271875 -9 11 C-9.66 10.34 -10.32 9.68 -11 9 C-9.54782324 7.49403892 -8.08807139 5.99537896 -6.625 4.5 C-5.40683594 3.24703125 -5.40683594 3.24703125 -4.1640625 1.96875 C-2 0 -2 0 0 0 Z " fill="#464E56" transform="translate(1928,388)"/>
<path d="M0 0 C1.32 0.66 2.64 1.32 4 2 C0.535 4.97 0.535 4.97 -3 8 C-3.33 6.68 -3.66 5.36 -4 4 C-2.0625 1.75 -2.0625 1.75 0 0 Z " fill="#34414C" transform="translate(1668,16)"/>
<path d="M0 0 C0.33 0.66 0.66 1.32 1 2 C-5.435 2.495 -5.435 2.495 -12 3 C-12 2.34 -12 1.68 -12 1 C-7.93631321 0.22596442 -4.13574827 -0.0984702 0 0 Z " fill="#3A414A" transform="translate(1875,378)"/>
<path d="M0 0 C0.99 0.33 1.98 0.66 3 1 C2.34 1 1.68 1 1 1 C1 1.66 1 2.32 1 3 C0.34 3 -0.32 3 -1 3 C-1.2475 3.598125 -1.495 4.19625 -1.75 4.8125 C-3.16370012 7.28647521 -4.65055383 8.43370255 -7 10 C-6.42424336 6.64749299 -5.40693737 5.06181371 -2.9375 2.75 C-2.38964844 2.22921875 -1.84179688 1.7084375 -1.27734375 1.171875 C-0.64505859 0.59179688 -0.64505859 0.59179688 0 0 Z " fill="#4F545C" transform="translate(1890,424)"/>
<path d="M0 0 C-1.25 1.5 -1.25 1.5 -3 3 C-4.32 3 -5.64 3 -7 3 C-7 3.66 -7 4.32 -7 5 C-8.32 4.34 -9.64 3.68 -11 3 C-9.73581754 2.30034557 -8.46334598 1.61565237 -7.1875 0.9375 C-6.47980469 0.55464844 -5.77210937 0.17179687 -5.04296875 -0.22265625 C-3 -1 -3 -1 0 0 Z " fill="#7196B2" transform="translate(1758,375)"/>
<path d="M0 0 C0.99 0.33 1.98 0.66 3 1 C0.36 3.64 -2.28 6.28 -5 9 C-5.33 8.01 -5.66 7.02 -6 6 C-5.34 6 -4.68 6 -4 6 C-3.71125 5.38125 -3.4225 4.7625 -3.125 4.125 C-2 2 -2 2 0 0 Z " fill="#4D535C" transform="translate(1880,434)"/>
<path d="M0 0 C0.66 0 1.32 0 2 0 C1.34 3.3 0.68 6.6 0 10 C-2.08120514 5.83758971 -2.24191133 5.17733811 -1 1 C-0.67 0.67 -0.34 0.34 0 0 Z " fill="#404954" transform="translate(1672,109)"/>
<path d="M0 0 C0 3 0 3 -1 6 C-3.4375 7.75 -3.4375 7.75 -6 9 C-6.66 8.67 -7.32 8.34 -8 8 C-5.36 5.36 -2.72 2.72 0 0 Z " fill="#42474E" transform="translate(1433,251)"/>
<path d="M0 0 C0.99 0.33 1.98 0.66 3 1 C2.01 2.485 2.01 2.485 1 4 C0.34 4 -0.32 4 -1 4 C-1 4.66 -1 5.32 -1 6 C-2.32 5.67 -3.64 5.34 -5 5 C-3.35 3.35 -1.7 1.7 0 0 Z " fill="#39414B" transform="translate(1643,41)"/>
<path d="M0 0 C0 0.66 0 1.32 0 2 C-1.98 2.66 -3.96 3.32 -6 4 C-6 4.66 -6 5.32 -6 6 C-7.32 5.34 -8.64 4.68 -10 4 C-8.71086513 3.32845067 -7.41859796 2.66291141 -6.125 2 C-5.40570312 1.62875 -4.68640625 1.2575 -3.9453125 0.875 C-2 0 -2 0 0 0 Z " fill="#789AB6" transform="translate(1747,379)"/>
<path d="M0 0 C3.25543229 0.34879632 4.01873107 1.02133261 6.25 3.5625 C6.8275 4.366875 7.405 5.17125 8 6 C5 6 5 6 3.61328125 4.6875 C2.40885417 3.125 1.20442708 1.5625 0 0 Z " fill="#4E545C" transform="translate(1591,526)"/>
<path d="M0 0 C0 0.66 0 1.32 0 2 C-2.64 2.33 -5.28 2.66 -8 3 C-8 2.34 -8 1.68 -8 1 C-5.10765685 0.17361624 -3.11257569 0 0 0 Z " fill="#3E454E" transform="translate(1809,391)"/>
<path d="M0 0 C0.33 0.99 0.66 1.98 1 3 C0.01 3.33 -0.98 3.66 -2 4 C-2.33 4.99 -2.66 5.98 -3 7 C-3.99 6.67 -4.98 6.34 -6 6 C-4.02 4.02 -2.04 2.04 0 0 Z " fill="#4E545C" transform="translate(1619,65)"/>
</svg>
